<?xml version="1.0" encoding="UTF-8"?>
<svg version="1.1" xmlns="http://www.w3.org/2000/svg" width="300" height="300">
<path d="M0 0 C0 0.66 0 1.32 0 2 C-1.33341652 1.85492922 -2.66672764 1.7088897 -4 1.5625 C-4.83273438 1.47226562 -5.66546875 1.38203125 -6.5234375 1.2890625 C-8.5631572 1.05098796 -10.59571903 0.75238843 -12.625 0.4375 C-36.49602643 -2.44593092 -58.90425271 4.59412711 -77.75 19.3125 C-92.4401798 31.80759546 -102.79164746 50.70724976 -105 70 C-106.60228573 96.36904515 -100.57211845 118.00033614 -83 138 C-68.88973042 153.13834022 -47.90714629 160.54283155 -27.69140625 162.28515625 C-4.92587482 162.93884816 16.19144984 154.75173625 32.8515625 139.234375 C50.42835435 120.95451147 56.70131273 99.51893084 56.23828125 74.6640625 C56.06986096 69.41331224 55.60930316 64.21666605 55 59 C55.99 59.33 56.98 59.66 58 60 C59.1328125 62.9140625 59.1328125 62.9140625 60.125 66.625 C60.62386719 68.43871094 60.62386719 68.43871094 61.1328125 70.2890625 C66.48983454 93.21325591 62.70383496 117.25524778 52 138 C51.44183594 139.09054688 50.88367188 140.18109375 50.30859375 141.3046875 C46.40874007 148.41671765 41.65138432 154.20894268 36 160 C35.175 160.86625 34.35 161.7325 33.5 162.625 C32.675 163.40875 31.85 164.1925 31 165 C30.40316406 165.59167969 29.80632812 166.18335938 29.19140625 166.79296875 C22.82986788 172.8276758 15.74825672 177.03675096 8 181 C6.36224609 181.83917969 6.36224609 181.83917969 4.69140625 182.6953125 C-18.82879199 193.72127116 -46.26715192 193.9549624 -70.61328125 185.45703125 C-79.5329272 182.10162939 -87.31745479 177.66878715 -95 172 C-95.74765625 171.48566406 -96.4953125 170.97132813 -97.265625 170.44140625 C-102.31225508 166.88757705 -106.09131659 162.74685119 -110 158 C-111.04994141 156.83210938 -111.04994141 156.83210938 -112.12109375 155.640625 C-122.68129064 143.56137032 -129.09678482 129.44886009 -133 114 C-133.24492187 113.03320312 -133.48984375 112.06640625 -133.7421875 111.0703125 C-139.05795378 85.36530568 -132.60338228 59.04239775 -119 37 C-116.57075761 33.41299102 -113.9204687 30.1971967 -111 27 C-110.53996582 26.49227051 -110.07993164 25.98454102 -109.60595703 25.46142578 C-101.91116376 17.06914396 -93.88229349 10.63349904 -84 5 C-83.16082031 4.51015625 -82.32164063 4.0203125 -81.45703125 3.515625 C-57.46021727 -9.50777153 -24.84598372 -11.76600671 0 0 Z " fill="#000000" transform="translate(186,58)"/>
<path d="M0 0 C0 0.99 0 1.98 0 3 C-1.3921875 3.5878125 -1.3921875 3.5878125 -2.8125 4.1875 C-6.34369037 6.19543178 -7.47644365 7.27575115 -9 11 C-9.40009361 14.73420699 -9.29209532 17.24398857 -7.9375 20.75 C-5.24122386 23.88115939 -2.96368625 24.87695556 1 26 C5.95358025 25.24436911 8.87732689 23.93225503 12 20 C13.23512079 17.86690808 13.23512079 17.86690808 14 16 C14.66 16 15.32 16 16 16 C20.49672207 26.01725139 21.85920947 35.38199452 18.25 45.9375 C14.06359559 56.05831629 6.71836248 63.93610777 -2.98828125 69.046875 C-12.54735405 72.86330331 -24.12666141 72.31105071 -33.5078125 68.31640625 C-42.46369744 63.58578991 -49.28755943 56.7569694 -53.09765625 47.265625 C-56.40304647 36.38089813 -55.67348589 26.63306882 -50.74609375 16.39453125 C-45.47668998 6.90386125 -38.14840157 0.86127078 -27.953125 -2.71875 C-18.57996714 -5.31860401 -8.76102425 -3.95105015 0 0 Z " fill="#000000" transform="translate(172,111)"/>
<path d="M0 0 C14.7328715 11.4746403 25.07497502 28.41097514 27.84375 47.02734375 C29.27534723 65.06546889 24.81571153 80.23862083 14.15625 94.96484375 C12.5703125 96.7734375 12.5703125 96.7734375 11.15625 97.96484375 C10.49625 97.96484375 9.83625 97.96484375 9.15625 97.96484375 C9.71798352 92.12281513 10.91597797 86.65985707 12.4375 80.9921875 C16.5781028 63.55214852 14.0867794 46.62680731 8.15625 29.96484375 C7.49625 29.96484375 6.83625 29.96484375 6.15625 29.96484375 C5.16625 26.99484375 5.16625 26.99484375 4.15625 23.96484375 C3.49625 23.96484375 2.83625 23.96484375 2.15625 23.96484375 C1.13241089 22.81563659 0.16240653 21.61825327 -0.78125 20.40234375 C-11.26612553 8.16638592 -28.03124659 2.7440841 -43.66772461 1.37573242 C-52.00295131 0.75945122 -59.87795174 1.29567345 -68.13671875 2.4921875 C-71.42849027 2.91189704 -74.53186766 3.05240518 -77.84375 2.96484375 C-76.80508657 -0.42407998 -75.62246316 -1.17127248 -72.53515625 -3.0703125 C-71.16716495 -3.76276288 -69.79022483 -4.43773095 -68.40625 -5.09765625 C-67.67688232 -5.44763672 -66.94751465 -5.79761719 -66.19604492 -6.15820312 C-44.19240941 -16.47627837 -19.83031736 -14.19175185 0 0 Z " fill="#000000" transform="translate(204.84375,78.03515625)"/>
</svg>
