<svg xmlns="http://www.w3.org/2000/svg" enable-background="new 0 0 100 100" viewBox="0 0 100 100" id="question"><path d="M57.4,80.1l3,9.6C57.1,90.5,53.6,91,50,91s-7.1-0.5-10.5-1.4l3-9.6c2.4,0.6,4.9,0.9,7.4,0.9S55.1,80.7,57.4,80.1z M19,50
	c0-2.6,0.3-5.1,0.9-7.4l-9.5-3C9.5,42.9,9,46.4,9,50s0.5,7.1,1.4,10.5l9.5-3C19.3,55.1,19,52.6,19,50z M61.2,78.9l3,9.5
	c11.1-4.2,20-13,24.1-24.2l-9.5-3C75.7,69.3,69.3,75.7,61.2,78.9z M78.9,38.8l9.5-3c-4.1-11.1-13-20-24.1-24.1l-3,9.5
	C69.3,24.3,75.7,30.7,78.9,38.8z M89.6,39.5l-9.5,3c0.6,2.4,0.9,4.9,0.9,7.4s-0.3,5.1-0.9,7.4l9.5,3C90.5,57.1,91,53.6,91,50
	S90.5,42.9,89.6,39.5z M38.8,21.1l-3-9.5c-11.1,4.1-20,13-24.1,24.1l9.5,3C24.3,30.7,30.7,24.3,38.8,21.1z M50,19
	c2.6,0,5.1,0.3,7.4,0.9l3-9.5C57.1,9.5,53.6,9,50,9s-7.1,0.5-10.5,1.4l3,9.5C44.9,19.3,47.4,19,50,19z M21.1,61.2l-9.5,3
	c4.1,11.1,13,20,24.1,24.2l3-9.5C30.7,75.7,24.3,69.3,21.1,61.2z M77,50c0,14.9-12.1,27-27,27S23,64.9,23,50s12.1-27,27-27
	S77,35.1,77,50z M52,69c0-0.5-0.2-1-0.6-1.4c-0.7-0.8-2.1-0.8-2.8,0c-0.1,0.1-0.2,0.2-0.2,0.3c-0.1,0.1-0.1,0.2-0.2,0.3
	c-0.1,0.1-0.1,0.2-0.1,0.4c0,0.1,0,0.3,0,0.4c0,0.5,0.2,1,0.6,1.4c0.2,0.2,0.4,0.3,0.6,0.4C49.5,71,49.7,71,50,71c0.1,0,0.3,0,0.4,0
	c0.1,0,0.3-0.1,0.4-0.1c0.1,0,0.2-0.1,0.3-0.2c0.1-0.1,0.2-0.1,0.3-0.2c0.2-0.2,0.3-0.4,0.4-0.6C52,69.5,52,69.3,52,69z M62,40.7
	c-0.2-6.2-5.4-11.5-11.7-11.7c-3.3-0.1-6.4,1.1-8.7,3.4C39.3,34.7,38,37.7,38,41c0,1.1,0.9,2,2,2c0.3,0,0.7-0.1,1-0.3
	c0.6-0.3,1-1,1-1.7c0-2.2,0.9-4.2,2.4-5.7c1.6-1.5,3.6-2.3,5.8-2.3c4.2,0.1,7.7,3.6,7.8,7.8c0.1,2.9-1.3,5.5-3.7,7
	c-3.1,2-5.2,4.9-6,8.2c-0.2,0.9-0.3,1.8-0.3,2.7V59c0,1.1,0.9,2,2,2s2-0.9,2-2v-0.3c0-3,1.7-5.8,4.4-7.6C60,48.9,62.1,44.9,62,40.7z
	"></path></svg>